<svg width="74" height="74" viewBox="0 0 74 74" fill="none" xmlns="http://www.w3.org/2000/svg">
<g clip-path="url(#clip0_3180_10591)">
<g clip-path="url(#clip1_3180_10591)">
<path d="M18.1498 28.7607L15.5052 20.6213C15.3337 20.0935 14.5869 20.0935 14.4154 20.6213L11.7708 28.7607C11.6941 28.9968 11.4741 29.1566 11.2259 29.1566H2.66755C2.11256 29.1566 1.8818 29.8668 2.3308 30.193L9.25463 35.2235C9.45543 35.3694 9.53946 35.628 9.46276 35.864L6.81809 44.0035C6.64659 44.5313 7.25072 44.9702 7.69972 44.644L14.6236 39.6136C14.8244 39.4677 15.0963 39.4677 15.2971 39.6136L22.2209 44.644C22.6699 44.9703 23.274 44.5313 23.1025 44.0035L20.4578 35.864C20.3811 35.628 20.4652 35.3694 20.666 35.2235L27.5898 30.193C28.0388 29.8668 27.808 29.1566 27.253 29.1566H20.3292H18.6947C18.4465 29.1566 18.2265 28.9968 18.1498 28.7607Z" fill="#FF5D5D"/>
</g>
<path d="M6.98334 11.9505L5.8293 8.39876C5.75446 8.16843 5.42861 8.16843 5.35377 8.39875L4.19974 11.9505C4.16627 12.0535 4.07028 12.1233 3.96197 12.1233H0.227429C-0.0147521 12.1233 -0.115447 12.4332 0.0804815 12.5755L3.10179 14.7706C3.18941 14.8343 3.22608 14.9471 3.19261 15.0501L2.03857 18.6019C1.96373 18.8322 2.22735 19.0238 2.42328 18.8814L5.44459 16.6863C5.53221 16.6226 5.65086 16.6226 5.73849 16.6863L8.75979 18.8814C8.95572 19.0238 9.21934 18.8322 9.1445 18.6019L7.99047 15.0501C7.957 14.9471 7.99366 14.8343 8.08129 14.7706L11.1026 12.5755C11.2985 12.4332 11.1978 12.1233 10.9556 12.1233H7.93434H7.2211C7.1128 12.1233 7.01681 12.0535 6.98334 11.9505Z" fill="#FF5D5D"/>
<circle cx="32" cy="40.9355" r="8" fill="#273033"/>
<path d="M32.4619 36.9824C33.7791 37.129 34.6152 37.9607 34.6924 39.2529H33.6035C33.5601 38.5509 33.1492 38.0939 32.4619 37.9727V40.7871L32.8301 40.874C34.176 41.1801 34.8262 41.8939 34.8262 43.0273C34.8261 44.3549 33.9027 45.2525 32.4619 45.4102V46.4053H31.5156V45.415C30.1246 45.2749 29.2152 44.4411 29.1504 43.1631H30.2725C30.2935 43.8422 30.7571 44.3022 31.5156 44.4326V41.5967L31.2705 41.542C29.9472 41.2359 29.2627 40.4877 29.2627 39.3203C29.2629 38.076 30.1478 37.1808 31.5156 37.0049V35.999H32.4619V36.9824ZM32.4619 44.4209C33.2618 44.2906 33.7499 43.8122 33.75 43.1182C33.75 42.4607 33.3794 42.0407 32.6055 41.8594L32.4619 41.8281V44.4209ZM31.5156 37.9873C30.7806 38.1385 30.3398 38.6092 30.3398 39.2871C30.34 39.9443 30.7101 40.364 31.4951 40.5566L31.5156 40.5615V37.9873Z" fill="#FF5D5D"/>
<path d="M25 16.9355H48" stroke="#273033" stroke-width="1.4"/>
<path d="M27 10.9355L50 10.9355" stroke="#273033" stroke-width="1.4"/>
<path d="M25 22.9355H48" stroke="#273033" stroke-width="1.4"/>
<path d="M25 28.9355H48" stroke="#273033" stroke-width="1.4"/>
<path d="M25 52.9355H48" stroke="#273033" stroke-width="1.4"/>
<path d="M37 59L48 59" stroke="#273033" stroke-width="1.4"/>
<path d="M43 34.9355L48 34.9355" stroke="#273033" stroke-width="1.4"/>
<path d="M43 40.9355L48 40.9355" stroke="#273033" stroke-width="1.4"/>
<path d="M43 46.9355L48 46.9355" stroke="#273033" stroke-width="1.4"/>
<path d="M62.6445 4.2002C67.8721 4.20033 72.1514 8.24407 72.5332 13.374H72.5391V13.4463C72.554 13.669 72.5635 13.8936 72.5635 14.1201C72.5635 14.1273 72.5645 14.1344 72.5645 14.1416H72.5391V14.7744H54.125V58.7295C54.125 64.2191 49.6731 68.6707 44.1836 68.6709H11.2061C6.04379 68.6708 1.79941 64.7346 1.31152 59.7002H1.2998V59.5381C1.27833 59.2714 1.26465 59.0017 1.26465 58.7295H1.2998V58.2998H19.7041L19.7051 14.1416H19.7041C19.7044 8.65234 24.1562 4.20049 29.6455 4.2002H62.6445ZM2.72168 59.7002C3.20367 63.9598 6.81778 67.2705 11.2061 67.2705H39.1592C36.5046 65.6989 34.6462 62.9267 34.333 59.7002H2.72168ZM29.6455 5.60059C24.9298 5.60088 21.1053 9.42501 21.1045 14.1406V58.2998H35.7002V59.2188C35.9535 63.6969 39.6635 67.2489 44.2051 67.249C48.4685 67.2489 51.9998 64.1185 52.626 60.0303C52.6908 59.6062 52.7246 59.1716 52.7246 58.7295V14.1201C52.7248 10.4991 54.6651 7.33239 57.5625 5.60059H29.6455ZM62.6338 5.60059C58.1845 5.60601 54.5371 9.02157 54.1592 13.374H71.1279C70.7396 9.02087 67.0865 5.606 62.6338 5.60059Z" fill="#273033"/>
</g>
<defs>
<clipPath id="clip0_3180_10591">
<rect width="74" height="74" fill="white"/>
</clipPath>
<clipPath id="clip1_3180_10591">
<rect width="25" height="39.0625" fill="white" transform="translate(-4 12)"/>
</clipPath>
</defs>
</svg>
