<svg width="80" height="88" viewBox="0 0 80 88" fill="none" xmlns="http://www.w3.org/2000/svg">
<path d="M12.9817 1.36557C12.9601 0.899952 13.3224 0.506078 13.7882 0.488765L26.0897 0.0315295C26.557 0.0141615 26.9482 0.382347 26.9592 0.849815L28.9506 85.8018C28.9613 86.2601 28.6019 86.6421 28.1438 86.6593L17.7902 87.048C17.3303 87.0653 16.9424 86.7087 16.9211 86.249L12.9817 1.36557Z" fill="#F6F6F6"/>
<path d="M78.0918 55.2867L70.8788 65.5277C70.2849 66.3709 69.1243 66.5832 68.2692 66.0066C51.0637 54.4034 28.615 54.0013 11.0209 65.0062C10.146 65.5534 8.99397 65.299 8.43087 64.4342L1.60323 53.9487C0.855443 52.8002 1.19006 51.2622 2.34737 50.5282C25.3913 35.9141 54.9415 36.4358 77.4676 51.8363C78.601 52.6112 78.8825 54.1642 78.0918 55.2867Z" fill="#F6F6F6"/>
<path d="M69.7028 1.36557C69.7244 0.899952 69.3622 0.506078 68.8964 0.488765L56.5948 0.0315295C56.1276 0.0141615 55.7364 0.382347 55.7254 0.849815L53.734 85.8018C53.7232 86.2601 54.0826 86.6421 54.5408 86.6593L64.8944 87.048C65.3543 87.0653 65.7422 86.7087 65.7635 86.249L69.7028 1.36557Z" fill="#F6F6F6"/>
</svg>
