<svg width="73" height="23" viewBox="0 0 73 23" fill="none" xmlns="http://www.w3.org/2000/svg">
<path d="M55.8133 22.5261H52.0918V0H55.8438V9.34364C56.7894 7.87944 58.5587 6.93382 60.7245 6.93382C64.0588 6.93382 66.3982 9.28263 66.3982 13.1872V22.5261H62.6767V14.0718C62.6767 11.5399 61.4261 10.3198 59.5348 10.3198C57.186 10.3198 55.8133 11.967 55.8133 14.2243V22.5261Z" fill="#1D1D1D"/>
<path d="M36.8398 17.8505H40.5091C40.5407 19.1458 41.5529 19.9591 43.3243 19.9591C45.1272 19.9591 46.1078 19.2663 46.1078 18.1818C46.1078 17.4287 45.6966 16.8865 44.3048 16.5852L41.4896 15.9526C38.6745 15.3502 37.3143 13.8537 37.3143 11.4739C37.3143 8.55188 39.9081 6.80469 43.5141 6.80469C47.0251 6.80469 49.3975 8.73262 49.4291 11.6245H45.7599C45.7282 10.3593 44.8426 9.54597 43.3559 9.54597C41.8376 9.54597 40.9519 10.2087 40.9519 11.3233C40.9519 12.1668 41.6478 12.9402 42.9763 13.2415L45.7915 13.8741C48.4169 14.4464 49.7454 15.5912 49.7454 17.8806C49.7454 20.893 47.0568 22.7607 43.1977 22.7607C39.3071 22.7607 36.8398 20.7725 36.8398 17.8505Z" fill="#1D1D1D"/>
<path d="M26.3184 22.7607C23.0881 22.7607 21.1191 20.8961 21.1191 18.0534C21.1191 15.2718 23.1496 13.5294 26.7491 13.2543L31.3023 12.9181V12.5819C31.3023 10.5339 30.0717 9.70855 28.1643 9.70855C25.9492 9.70855 24.7186 10.6256 24.7186 12.215H21.5191C21.5191 8.94438 24.2264 6.80469 28.3489 6.80469C32.4406 6.80469 34.9633 9.00551 34.9633 13.1932V22.3633H31.6715L31.3946 20.1319C30.7485 21.6908 28.6873 22.7607 26.3184 22.7607ZM27.549 19.9485C29.8563 19.9485 31.3331 18.573 31.3331 16.2499V15.4552L28.1643 15.6997C25.8262 15.9137 24.934 16.6778 24.934 17.9005C24.934 19.276 25.8569 19.9485 27.549 19.9485Z" fill="#1D1D1D"/>
<path d="M3.16549 0.771168C3.1518 0.476244 3.38163 0.226935 3.67669 0.216632L6.48396 0.1186C6.77902 0.108296 7.02568 0.340965 7.03259 0.636125L7.53654 22.1338C7.54335 22.4242 7.31523 22.6661 7.02492 22.6762L4.71059 22.757C4.42028 22.7672 4.17584 22.5418 4.16238 22.2517L3.16549 0.771168Z" fill="#1D1D1D"/>
<path d="M20.364 14.4915L18.4558 17.3776C18.3048 17.606 17.9962 17.6673 17.7692 17.5142C13.2954 14.4969 7.45914 14.3929 2.88406 17.2544C2.65202 17.3995 2.34615 17.3275 2.20326 17.0941L0.396573 14.1425C0.21364 13.8436 0.304288 13.4533 0.600202 13.2656C6.60975 9.45461 14.3162 9.59099 20.1906 13.6073C20.4801 13.8052 20.5574 14.199 20.364 14.4915Z" fill="#FF4F51"/>
<path d="M17.9048 0.771168C17.9185 0.476244 17.6887 0.226935 17.3936 0.216632L14.5864 0.1186C14.2913 0.108296 14.0446 0.340965 14.0377 0.636125L13.5338 22.1338C13.527 22.4242 13.7551 22.6661 14.0454 22.6762L16.3597 22.757C16.65 22.7672 16.8945 22.5418 16.9079 22.2517L17.9048 0.771168Z" fill="#1D1D1D"/>
<path d="M68.9844 22.5265L68.9845 7.03516H72.75L72.7499 22.5265H68.9844Z" fill="#1D1D1D"/>
<circle cx="70.8618" cy="2.34717" r="2.11182" fill="#1D1D1D"/>
</svg>
