<svg width="128" height="20" viewBox="0 0 128 20" fill="none" xmlns="http://www.w3.org/2000/svg">
<path d="M125.519 10.7588C126.509 10.7588 127.312 11.5616 127.312 12.5519L127.312 17.8829C127.312 18.8919 126.48 19.7022 125.471 19.6754L2.64365 16.4086C1.67226 16.3828 0.898215 15.5879 0.898215 14.6162L0.898216 12.5519C0.898216 11.5616 1.70102 10.7588 2.69132 10.7588L125.519 10.7588Z" fill="white"/>
<path d="M125.519 8.96484C126.509 8.96484 127.312 8.16204 127.312 7.17174L127.312 1.84077C127.312 0.831793 126.48 0.0214747 125.471 0.0482994L2.64366 3.31496C1.67226 3.34079 0.898217 4.13569 0.898217 5.10743L0.898217 7.17171C0.898216 8.16202 1.70102 8.96482 2.69132 8.96482L125.519 8.96484Z" fill="white"/>
<mask id="mask0_3568_70190" style="mask-type:alpha" maskUnits="userSpaceOnUse" x="0" y="0" width="127" height="9">
<path d="M124.621 8.42773C125.611 8.42773 126.414 7.62493 126.414 6.63463L126.414 1.83864C126.414 0.830789 125.583 0.0209082 124.576 0.0460964L1.74831 3.11676C0.775766 3.14107 2.38698e-05 3.93646 2.36572e-05 4.9093L2.32801e-05 6.6346C2.30636e-05 7.62491 0.802818 8.42771 1.79312 8.42771L124.621 8.42773Z" fill="#FF4F51"/>
</mask>
<g mask="url(#mask0_3568_70190)">
<rect width="11.5879" height="3.00985" transform="matrix(2.18557e-07 -1 -1 -2.18557e-07 114.374 9.48145)" fill="#FF4F51"/>
</g>
<mask id="mask1_3568_70190" style="mask-type:alpha" maskUnits="userSpaceOnUse" x="0" y="10" width="127" height="10">
<path d="M124.621 10.7588C125.611 10.7588 126.414 11.5616 126.414 12.5519L126.414 17.3479C126.414 18.3557 125.583 19.1656 124.576 19.1404L1.74831 16.0697C0.775763 16.0454 2.19066e-05 15.25 2.21192e-05 14.2772L2.24963e-05 12.5519C2.27127e-05 11.5616 0.802818 10.7588 1.79312 10.7588L124.621 10.7588Z" fill="#FF4F51"/>
</mask>
<g mask="url(#mask1_3568_70190)">
<rect x="114.374" y="9.70508" width="11.5879" height="3.00985" transform="rotate(90 114.374 9.70508)" fill="#FF4F51"/>
</g>
<path d="M126.864 12.5518L126.864 17.8828C126.864 18.6395 126.239 19.2477 125.483 19.2275L2.65576 15.9609C1.92721 15.9415 1.3462 15.345 1.34619 14.6162L1.34619 12.5517C1.34626 11.8092 1.94842 11.2072 2.69092 11.207L125.519 11.207C126.262 11.2071 126.864 11.8091 126.864 12.5518Z" stroke="black" stroke-width="0.896552"/>
<path d="M126.864 7.17187L126.864 1.84082C126.864 1.08409 126.239 0.475975 125.483 0.496093L2.65576 3.76267C1.92722 3.78204 1.34621 4.37861 1.34619 5.10739L1.34619 7.17185C1.34626 7.91438 1.94842 8.51636 2.69092 8.51657L125.519 8.5166C126.262 8.51653 126.864 7.91449 126.864 7.17187Z" stroke="black" stroke-width="0.896552"/>
</svg>
