<svg width="24" height="24" viewBox="0 0 24 24" fill="none" xmlns="http://www.w3.org/2000/svg">
<path d="M3 5.25C3 4.62868 3.50368 4.125 4.125 4.125H19.875C20.4963 4.125 21 4.62868 21 5.25V8.625H3V5.25Z" fill="#273033"/>
<rect x="3.5625" y="8.0625" width="16.875" height="12.375" rx="0.5625" stroke="#273033" stroke-width="1.125"/>
<rect x="6.375" y="10.875" width="2.25" height="2.25" rx="0.511364" fill="#273033"/>
<rect x="10.875" y="10.875" width="2.25" height="2.25" rx="0.511364" fill="#273033"/>
<rect x="15.375" y="10.875" width="2.25" height="2.25" rx="0.511364" fill="#FF5D5D"/>
<rect x="6.375" y="15.375" width="2.25" height="2.25" rx="0.511364" fill="#273033"/>
<rect x="10.875" y="15.375" width="2.25" height="2.25" rx="0.511364" fill="#273033"/>
<rect x="7.3875" y="5.1375" width="1.35" height="1.35" rx="0.675" stroke="white" stroke-width="0.225"/>
<rect x="15.2625" y="5.1375" width="1.35" height="1.35" rx="0.675" stroke="white" stroke-width="0.225"/>
<rect x="7.5" y="3" width="1.125" height="3.375" rx="0.5625" fill="#273033"/>
<rect x="15.375" y="3" width="1.125" height="3.375" rx="0.5625" fill="#273033"/>
</svg>
