<svg width="24" height="24" viewBox="0 0 24 24" fill="none" xmlns="http://www.w3.org/2000/svg">
<g clip-path="url(#clip0_997_1902)">
<path d="M19.7595 6.97092C19.4854 6.69857 19.0418 6.70001 18.7693 6.97402L6.25758 19.5541C5.985 19.8282 5.98577 20.2713 6.2598 20.544C6.5339 20.8166 6.9774 20.815 7.25003 20.5409L19.7626 7.96115C20.0352 7.68704 20.0336 7.24353 19.7595 6.97092Z" fill="#273033"/>
<path d="M22.2468 9.53395C22.0021 9.23483 21.5607 9.19088 21.2615 9.43555L7.52566 20.6668C7.22651 20.9115 7.18259 21.3529 7.42727 21.6521C7.67199 21.9513 8.11333 21.9952 8.4126 21.7505L22.1485 10.5193C22.4476 10.2745 22.4915 9.83316 22.2468 9.53395Z" fill="#273033"/>
<path d="M2.66453 7.6688C3.30321 7.01283 4.22879 6.77556 5.19098 6.90214C6.15326 7.02874 7.16419 7.51951 8.00321 8.33558C9.39751 9.69202 9.9167 11.5699 9.30756 12.924L16.9935 20.3988C17.34 20.7359 17.3471 21.2903 17.0104 21.6365C16.6736 21.9826 16.1194 21.9912 15.7729 21.6544L8.08363 14.1743C6.74775 14.8089 4.865 14.3404 3.47609 12.9894C2.63707 12.1732 2.11972 11.1754 1.96684 10.2168C1.81399 9.25803 2.02591 8.32531 2.66453 7.6688Z" fill="#273033" stroke="white" stroke-width="0.35"/>
<path d="M11 6C11.6667 5.33333 12 4 12 4C12 4 12.3333 5.33333 13 6C13.6667 6.66667 15 7 15 7C15 7 13.6667 7.33333 13 8C12.3333 8.66667 12 10 12 10C12 10 11.6667 8.66667 11 8C10.3333 7.33333 9 7 9 7C9 7 10.3333 6.66667 11 6Z" fill="#FF5D5D"/>
<path d="M14 3C14.3333 2.66667 14.5 2 14.5 2C14.5 2 14.6667 2.66667 15 3C15.3333 3.33333 16 3.5 16 3.5C16 3.5 15.3333 3.66667 15 4C14.6667 4.33333 14.5 5 14.5 5C14.5 5 14.3333 4.33333 14 4C13.6667 3.66667 13 3.5 13 3.5C13 3.5 13.6667 3.33333 14 3Z" fill="#FF5D5D"/>
</g>
<defs>
<clipPath id="clip0_997_1902">
<rect width="24" height="24" fill="white"/>
</clipPath>
</defs>
</svg>
