<svg width="24" height="24" viewBox="0 0 24 24" fill="none" xmlns="http://www.w3.org/2000/svg">
<path d="M3 13.7695H21.4615C21.4615 18.8675 17.3288 23.0003 12.2308 23.0003C7.13276 23.0003 3 18.8675 3 13.7695Z" fill="#273033"/>
<path d="M13.9487 8C17.7722 8 20.8715 11.0994 20.8716 14.9229C20.8716 18.556 18.0732 21.5326 14.5142 21.8203C14.8708 21.418 15.1819 20.9747 15.438 20.4971C17.9024 19.8403 19.7183 17.5941 19.7183 14.9229C19.7181 11.7367 17.1349 9.1543 13.9487 9.1543C12.6039 9.15439 11.3671 9.61526 10.3862 10.3867C10.0431 10.3344 9.69128 10.3076 9.3335 10.3076C9.14341 10.3076 8.95525 10.317 8.76904 10.332C10.0372 8.90219 11.8872 8.00012 13.9487 8ZM13.9487 10.3076C16.4977 10.3076 18.5638 12.3739 18.564 14.9229C18.564 16.7295 17.5253 18.292 16.0132 19.0498C16.1475 18.5554 16.2286 18.0396 16.2495 17.5078C16.9615 16.8737 17.4106 15.9511 17.4106 14.9229C17.4105 13.0112 15.8604 11.4619 13.9487 11.4619C13.7133 11.462 13.4834 11.4855 13.2612 11.5303C12.8348 11.2359 12.3737 10.9887 11.8853 10.7949C12.5063 10.4838 13.2069 10.3077 13.9487 10.3076Z" fill="#273033"/>
<path d="M9.52734 10.3076C12.0897 10.3076 14.3254 11.7005 15.5225 13.7695H14.1426C13.0899 12.3685 11.4147 11.4619 9.52734 11.4619C7.64018 11.462 5.96549 12.3687 4.91309 13.7695H3.53223C4.7293 11.7006 6.96515 10.3077 9.52734 10.3076Z" fill="#273033"/>
<path d="M6.59383 3.93403L6.08029 2.36993C6.00895 2.15265 5.70158 2.15265 5.63024 2.36993L5.1167 3.93403C5.08477 4.03126 4.99401 4.09699 4.89167 4.09699H3.23512C3.00509 4.09699 2.91009 4.39184 3.09686 4.52613L4.43277 5.48664C4.51665 5.54695 4.55176 5.65466 4.51953 5.75282L4.00826 7.31001C3.93676 7.52778 4.18544 7.71 4.37154 7.57619L5.717 6.60881C5.79961 6.54942 5.91092 6.54942 5.99352 6.60881L7.33898 7.57619C7.52508 7.71 7.77377 7.52778 7.70227 7.31001L7.19099 5.75282C7.15877 5.65467 7.19388 5.54695 7.27776 5.48664L8.61367 4.52613C8.80044 4.39184 8.70544 4.09699 8.47541 4.09699H7.13686H6.81885C6.71652 4.09699 6.62575 4.03126 6.59383 3.93403Z" fill="#FF5D5D"/>
<path d="M19.1202 3.93403L18.6067 2.36993C18.5353 2.15265 18.2279 2.15265 18.1566 2.36993L17.6431 3.93403C17.6111 4.03126 17.5204 4.09699 17.418 4.09699H15.7615C15.5315 4.09699 15.4365 4.39184 15.6232 4.52613L16.9591 5.48664C17.043 5.54695 17.0781 5.65466 17.0459 5.75282L16.5346 7.31001C16.4631 7.52778 16.7118 7.71 16.8979 7.57619L18.2434 6.60881C18.326 6.54942 18.4373 6.54942 18.5199 6.60881L19.8654 7.57619C20.0514 7.71 20.3001 7.52778 20.2286 7.31001L19.7174 5.75282C19.6851 5.65467 19.7202 5.54695 19.8041 5.48664L21.14 4.52613C21.3268 4.39184 21.2318 4.09699 21.0018 4.09699H19.6632H19.3452C19.2429 4.09699 19.1521 4.03126 19.1202 3.93403Z" fill="#FF5D5D"/>
<path d="M12.857 2.24946L12.3435 0.685357C12.2721 0.468077 11.9648 0.468076 11.8934 0.685356L11.3799 2.24946C11.348 2.34669 11.2572 2.41242 11.1549 2.41242H9.4983C9.26827 2.41242 9.17327 2.70727 9.36004 2.84156L10.696 3.80207C10.7798 3.86238 10.8149 3.97009 10.7827 4.06825L10.2714 5.62544C10.1999 5.84321 10.4486 6.02543 10.6347 5.89162L11.9802 4.92424C12.0628 4.86485 12.1741 4.86485 12.2567 4.92424L13.6022 5.89162C13.7883 6.02543 14.037 5.84321 13.9655 5.62544L13.4542 4.06825C13.422 3.97009 13.4571 3.86238 13.5409 3.80207L14.8769 2.84156C15.0636 2.70727 14.9686 2.41242 14.7386 2.41242H13.4H13.082C12.9797 2.41242 12.8889 2.34669 12.857 2.24946Z" fill="#FF5D5D"/>
</svg>
