<svg width="50" height="50" viewBox="0 0 50 50" fill="none" xmlns="http://www.w3.org/2000/svg">
<path d="M22.3403 39.5098L22.3403 41.7058" stroke="#273033" stroke-width="1.47367" stroke-linecap="round"/>
<path d="M25.5659 39.5098L25.5659 41.7058" stroke="#273033" stroke-width="1.47367" stroke-linecap="round"/>
<path d="M28.8599 39.5098L28.8599 41.7058" stroke="#273033" stroke-width="1.47367" stroke-linecap="round"/>
<path d="M35.876 17.853C40.3611 17.8531 43.9969 20.277 43.9971 23.2671C43.9971 26.2572 40.3612 28.6811 35.876 28.6812C31.9099 28.6811 27.0881 26.9166 25.498 24.3247C23.9076 26.9163 19.0869 28.6812 15.1211 28.6812C10.6359 28.6811 7 26.2572 7 23.2671C7.00015 20.277 10.636 17.8531 15.1211 17.853C19.0341 17.853 23.9467 20.2574 25.498 22.3687C27.0489 20.2573 31.9627 17.8531 35.876 17.853ZM15.1211 19.9282C13.2313 19.9283 11.6143 20.4429 10.5303 21.1655C9.43177 21.8979 9.07527 22.6819 9.0752 23.2671C9.0752 23.8523 9.43165 24.6362 10.5303 25.3687C11.6143 26.0913 13.2312 26.6059 15.1211 26.606C17.0557 26.606 19.2729 26.1106 21.0527 25.2788C22.4252 24.6373 23.2371 23.9436 23.6396 23.3735C23.5488 23.2739 23.4316 23.1555 23.2803 23.021C22.7504 22.5502 21.9888 22.0366 21.0625 21.5591C19.1829 20.59 16.9402 19.9282 15.1211 19.9282ZM35.876 19.9282C34.0569 19.9283 31.8141 20.5901 29.9346 21.5591C29.0084 22.0366 28.2466 22.5503 27.7168 23.021C27.5655 23.1554 27.4483 23.2739 27.3574 23.3735C27.76 23.9436 28.572 24.6373 29.9443 25.2788C31.7241 26.1106 33.9414 26.6059 35.876 26.606C37.7657 26.6059 39.3827 26.0912 40.4668 25.3687C41.5654 24.6362 41.9219 23.8523 41.9219 23.2671C41.9218 22.6819 41.5653 21.8979 40.4668 21.1655C39.3827 20.443 37.7656 19.9283 35.876 19.9282Z" fill="#FF5D5D"/>
<path d="M14 32.853C18.2253 30.8129 22.1268 28.161 25.5787 24.9829L25.7197 24.853L26.3326 25.4022C29.5745 28.3075 33.1564 30.8093 37 32.853" stroke="#FF5D5D" stroke-width="1.6331" stroke-linecap="round"/>
</svg>
