<svg width="17" height="19" viewBox="0 0 17 18.5117" fill="none" xmlns="http://www.w3.org/2000/svg">
<path d="M2.57307 0.332588C2.5674 0.210489 2.66255 0.107276 2.78471 0.10301L5.50663 0.00795848C5.62879 0.0036927 5.7309 0.100018 5.73377 0.222215L6.15501 18.1917C6.15782 18.312 6.06338 18.4121 5.94319 18.4163L3.63331 18.497C3.51312 18.5012 3.41192 18.4079 3.40635 18.2877L2.57307 0.332588Z" fill="#1D1D1D"/>
<path d="M16.6187 11.7452L15.0615 14.1005C14.9383 14.2869 14.6865 14.3368 14.5012 14.2119C10.8503 11.7496 6.08766 11.6648 2.35416 13.9999C2.16481 14.1183 1.9152 14.0596 1.7986 13.8691L0.324248 11.4604C0.174965 11.2166 0.248938 10.898 0.490418 10.7449C5.39452 7.63487 11.6834 7.74617 16.4772 11.0237C16.7134 11.1852 16.7765 11.5065 16.6187 11.7452Z" fill="#FF4F51"/>
<path d="M14.6213 0.332588C14.627 0.210489 14.5318 0.107276 14.4097 0.10301L11.6877 0.00795848C11.5656 0.0036927 11.4635 0.100018 11.4606 0.222215L11.0394 18.1917C11.0365 18.312 11.131 18.4121 11.2512 18.4163L13.5611 18.497C13.6812 18.5012 13.7824 18.4079 13.788 18.2877L14.6213 0.332588Z" fill="#1D1D1D"/>
</svg>
