<svg width="24" height="24" viewBox="0 0 24 24" fill="none" xmlns="http://www.w3.org/2000/svg">
<path d="M3.98942 9.61429L2 7.93572L5.0664 6.94644C7.01234 6.31864 8.85961 5.41855 10.5532 4.27296L12.2222 3.14404L13.5862 4.11794C15.3339 5.36572 17.2572 6.34676 19.2934 7.02891L22 7.93572L19.7799 9.6386C19.6344 9.75021 19.4562 9.81071 19.2728 9.81071H4.52682C4.33012 9.81071 4.13976 9.74113 3.98942 9.61429Z" fill="currentColor"/>
<path d="M4.5 19.2506V10.9172H19.5V19.2506C19.5 20.171 18.7538 20.9172 17.8333 20.9172H15.5417C14.6212 20.9172 13.875 20.171 13.875 19.2506V17.0839C13.875 16.1634 13.1288 15.4172 12.2083 15.4172H11.7917C10.8712 15.4172 10.125 16.1634 10.125 17.0839V19.2506C10.125 20.171 9.37881 20.9172 8.45833 20.9172H6.16667C5.24619 20.9172 4.5 20.171 4.5 19.2506Z" fill="currentColor"/>
</svg>
