<svg width="24" height="24" viewBox="0 0 24 24" fill="none" xmlns="http://www.w3.org/2000/svg">
<g clip-path="url(#clip0_997_1974)">
<path d="M2.10608 9.16145C4.4625 8.42858 7.09256 8.78311 9.25757 10.1585C8.44736 14.1989 9.95389 18.1734 12.8689 20.6947C12.7942 20.8898 12.7133 21.0828 12.6236 21.2723C9.48592 22.2477 5.8627 21.2963 3.4987 18.5731C1.13553 15.8506 0.700786 12.1304 2.10608 9.16145Z" fill="#273033"/>
<mask id="path-2-inside-1_997_1974" fill="white">
<path d="M19.3268 2.60486C22.3418 5.68261 23.3962 10.3816 21.6293 14.6062C19.8628 18.8298 15.7785 21.379 11.4713 21.3951C8.45677 18.3173 7.40291 13.6184 9.16968 9.3941C10.9362 5.17088 15.0199 2.62115 19.3268 2.60486Z"/>
</mask>
<path d="M19.3268 2.60486L20.2752 1.67586L19.8827 1.27519L19.3218 1.27731L19.3268 2.60486ZM21.6293 14.6062L22.8541 15.1185L22.8541 15.1184L21.6293 14.6062ZM11.4713 21.3951L10.5228 22.324L10.9153 22.7247L11.4762 22.7226L11.4713 21.3951ZM9.16968 9.3941L7.94495 8.88182L7.94493 8.88186L9.16968 9.3941ZM19.3268 2.60486L18.3785 3.53386C21.0333 6.24397 21.9583 10.3789 20.4045 14.094L21.6293 14.6062L22.8541 15.1184C24.834 10.3842 23.6503 5.12125 20.2752 1.67586L19.3268 2.60486ZM21.6293 14.6062L20.4045 14.094C18.8511 17.8082 15.259 20.0534 11.4663 20.0675L11.4713 21.3951L11.4762 22.7226C16.298 22.7046 20.8745 19.8515 22.8541 15.1185L21.6293 14.6062ZM11.4713 21.3951L12.4197 20.4662C9.76532 17.7561 8.84074 13.6212 10.3944 9.90633L9.16968 9.3941L7.94493 8.88186C5.96507 13.6157 7.14821 18.8785 10.5228 22.324L11.4713 21.3951ZM9.16968 9.3941L10.3944 9.90638C11.9479 6.19236 15.5396 3.94675 19.3318 3.9324L19.3268 2.60486L19.3218 1.27731C14.5002 1.29555 9.92443 4.14939 7.94495 8.88182L9.16968 9.3941Z" fill="#273033" mask="url(#path-2-inside-1_997_1974)"/>
<path d="M12.3521 19.9132L16.6192 9.48242" stroke="#FF5D5D" stroke-width="1.32755" stroke-linecap="round"/>
</g>
<defs>
<clipPath id="clip0_997_1974">
<rect width="24" height="24" fill="white"/>
</clipPath>
</defs>
</svg>
