<svg width="16" height="16" viewBox="0 0 16 16" fill="none" xmlns="http://www.w3.org/2000/svg">
<path d="M8 0.5C11.3137 0.5 14 3.26534 14 6.67651C14 11.9703 8 15.5 8 15.5C7.99806 15.4989 2.00003 11.9697 2 6.67651C2 3.26534 4.68629 0.5 8 0.5ZM8 4.25C6.55025 4.25 5.375 5.42525 5.375 6.875C5.375 8.32475 6.55025 9.5 8 9.5C9.44975 9.5 10.625 8.32475 10.625 6.875C10.625 5.42525 9.44975 4.25 8 4.25ZM8 5C9.03553 5 9.875 5.83947 9.875 6.875C9.875 7.91053 9.03553 8.75 8 8.75C6.96447 8.75 6.125 7.91053 6.125 6.875C6.125 5.83947 6.96447 5 8 5Z" fill="#273033"/>
</svg>
