<svg width="24" height="24" viewBox="0 0 24 24" fill="none" xmlns="http://www.w3.org/2000/svg">
<circle cx="13.5" cy="10.5" r="7.8" stroke="#273033" stroke-width="1.4"/>
<path d="M5.10059 9C5.03409 9.42839 5 9.86742 5 10.3145C5 15.0089 8.80558 18.8145 13.5 18.8145C13.9467 18.8145 14.3853 18.7793 14.8135 18.7129C13.5568 20.5832 11.4226 21.8145 9 21.8145C5.13401 21.8145 2 18.6804 2 14.8145C2 12.392 3.23044 10.2567 5.10059 9Z" fill="#273033"/>
<path d="M14 6.03906C15.3926 6.19395 16.2758 7.07328 16.3574 8.43945H15.207C15.1611 7.69722 14.7267 7.21406 14 7.08594V10.0615L14.3896 10.1523C15.8122 10.4759 16.4998 11.2308 16.5 12.4287C16.5 13.8322 15.5232 14.7806 14 14.9473V16H13V14.9531C11.5295 14.805 10.5687 13.9242 10.5 12.5732H11.6855C11.7079 13.2911 12.1981 13.7772 13 13.915V10.917L12.7412 10.8594C11.342 10.5358 10.6182 9.74495 10.6182 8.51074C10.6182 7.19515 11.5539 6.24841 13 6.0625V5H14V6.03906ZM14 13.9023C14.8457 13.7646 15.3612 13.2591 15.3613 12.5254C15.3613 11.8305 14.9704 11.3871 14.1523 11.1953L14 11.1621V13.9023ZM13 7.10059C12.2229 7.26033 11.757 7.75809 11.7568 8.47461C11.7568 9.1696 12.1485 9.61368 12.9785 9.81738L13 9.82227V7.10059Z" fill="#FF5D5D"/>
</svg>
