<svg width="24" height="24" viewBox="0 0 24 24" fill="none" xmlns="http://www.w3.org/2000/svg">
<path d="M4.91602 15.6562C9.48317 13.9436 14.5168 13.9436 19.084 15.6562C19.635 15.863 19.9999 16.39 20 16.9785V20.9863C20 21.2411 19.7529 21.4226 19.5098 21.3467C14.6199 19.8186 9.3801 19.8186 4.49023 21.3467C4.24706 21.4226 4.00001 21.2411 4 20.9863V16.9785C4.00006 16.39 4.36501 15.863 4.91602 15.6562ZM12 2.5C14.7614 2.5 17 4.73858 17 7.5C17 10.2614 14.7614 12.5 12 12.5C9.23858 12.5 7 10.2614 7 7.5C7 4.73858 9.23858 2.5 12 2.5Z" fill="#273033"/>
</svg>
