<svg width="24" height="24" viewBox="0 0 24 24" fill="none" xmlns="http://www.w3.org/2000/svg">
<path d="M11.134 3.5C11.5189 2.83333 12.4812 2.83333 12.8661 3.5L20.6603 17C21.0452 17.6667 20.5641 18.5 19.7943 18.5H4.20584C3.43604 18.5 2.95491 17.6667 3.33981 17L11.134 3.5Z" fill="white"/>
<path d="M11.1337 3.5C11.5186 2.83333 12.4812 2.83333 12.8661 3.5L20.6601 17C21.045 17.6667 20.5637 18.5 19.7939 18.5V17.5L11.9999 4L4.20598 17.5V18.5L4.06536 18.4902C3.42518 18.4028 3.03342 17.7252 3.27727 17.127L3.33977 17L11.1337 3.5ZM19.7939 17.5V18.5H4.20598V17.5H19.7939Z" fill="#273033"/>
<path d="M12.871 8L12.729 13.5847H11.271L11.1161 8H12.871ZM12.0065 16C11.4516 16 11 15.6175 11 15.1475C11 14.6885 11.4516 14.306 12.0065 14.306C12.5355 14.306 13 14.6885 13 15.1475C13 15.6175 12.5355 16 12.0065 16Z" fill="#FF5D5D"/>
</svg>
