<svg width="24" height="24" viewBox="0 0 24 24" fill="none" xmlns="http://www.w3.org/2000/svg">
<g clip-path="url(#clip0_997_1894)">
<path d="M4.91602 15.6562C9.48317 13.9436 14.5168 13.9436 19.084 15.6562C19.635 15.863 19.9999 16.39 20 16.9785V20.9863C20 21.2411 19.7529 21.4226 19.5098 21.3467C14.6199 19.8186 9.3801 19.8186 4.49023 21.3467C4.24706 21.4226 4.00001 21.2411 4 20.9863V16.9785C4.00006 16.39 4.36501 15.863 4.91602 15.6562ZM12 2.5C14.7614 2.5 17 4.73858 17 7.5C17 10.2614 14.7614 12.5 12 12.5C9.23858 12.5 7 10.2614 7 7.5C7 4.73858 9.23858 2.5 12 2.5Z" fill="#273033"/>
<mask id="path-2-outside-1_997_1894" maskUnits="userSpaceOnUse" x="10.8082" y="4.58732" width="15.3822" height="15.7076" fill="black">
<rect fill="white" x="10.8082" y="4.58732" width="15.3822" height="15.7076"/>
<path d="M21.222 6.89398C22.2323 7.348 22.558 8.81419 21.9495 10.1685C21.4349 11.3138 20.4173 12.0085 19.5042 11.9223L16.5947 18.3998C16.4815 18.6514 16.1858 18.7634 15.934 18.6505C15.6823 18.5373 15.5691 18.2416 15.682 17.9898L18.5941 11.5094C17.9308 10.8816 17.7781 9.66499 18.2903 8.52471C18.8987 7.17031 20.2115 6.44001 21.222 6.89398Z"/>
</mask>
<path d="M21.222 6.89398C22.2323 7.348 22.558 8.81419 21.9495 10.1685C21.4349 11.3138 20.4173 12.0085 19.5042 11.9223L16.5947 18.3998C16.4815 18.6514 16.1858 18.7634 15.934 18.6505C15.6823 18.5373 15.5691 18.2416 15.682 17.9898L18.5941 11.5094C17.9308 10.8816 17.7781 9.66499 18.2903 8.52471C18.8987 7.17031 20.2115 6.44001 21.222 6.89398Z" fill="#FF5D5D"/>
<path d="M21.222 6.89398L21.3654 6.57473L21.3654 6.57472L21.222 6.89398ZM21.9495 10.1685L22.2688 10.312L22.2688 10.312L21.9495 10.1685ZM19.5042 11.9223L19.5371 11.5738L19.2876 11.5503L19.1849 11.7789L19.5042 11.9223ZM16.5947 18.3998L16.9139 18.5434L16.914 18.5432L16.5947 18.3998ZM15.934 18.6505L15.7906 18.9697L15.7908 18.9698L15.934 18.6505ZM15.682 17.9898L15.3628 17.8464L15.3627 17.8466L15.682 17.9898ZM18.5941 11.5094L18.9134 11.6529L19.0153 11.4261L18.8347 11.2552L18.5941 11.5094ZM18.2903 8.52471L17.971 8.38128L17.971 8.38132L18.2903 8.52471ZM21.222 6.89398L21.0785 7.21323C21.4599 7.38462 21.7374 7.75756 21.8511 8.26954C21.9649 8.78157 21.9066 9.40994 21.6303 10.0251L21.9495 10.1685L22.2688 10.312C22.6009 9.5728 22.684 8.79089 22.5345 8.11773C22.3849 7.44452 21.9944 6.85736 21.3654 6.57473L21.222 6.89398ZM21.9495 10.1685L21.6303 10.0251C21.155 11.0827 20.2537 11.6415 19.5371 11.5738L19.5042 11.9223L19.4713 12.2707C20.5808 12.3756 21.7147 11.5449 22.2688 10.312L21.9495 10.1685ZM19.5042 11.9223L19.1849 11.7789L16.2755 18.2564L16.5947 18.3998L16.914 18.5432L19.8235 12.0657L19.5042 11.9223ZM16.5947 18.3998L16.2756 18.2562C16.2418 18.3312 16.1533 18.3652 16.0773 18.3311L15.934 18.6505L15.7908 18.9698C16.2183 19.1615 16.7212 18.9717 16.9139 18.5434L16.5947 18.3998ZM15.934 18.6505L16.0775 18.3312C16.0012 18.2969 15.9679 18.2078 16.0014 18.133L15.682 17.9898L15.3627 17.8466C15.1703 18.2755 15.3634 18.7778 15.7906 18.9697L15.934 18.6505ZM15.682 17.9898L16.0013 18.1333L18.9134 11.6529L18.5941 11.5094L18.2749 11.3659L15.3628 17.8464L15.682 17.9898ZM18.5941 11.5094L18.8347 11.2552C18.3135 10.7619 18.1367 9.72083 18.6095 8.66811L18.2903 8.52471L17.971 8.38132C17.4196 9.60915 17.5482 11.0013 18.3536 11.7636L18.5941 11.5094ZM18.2903 8.52471L18.6095 8.66815C18.8859 8.05296 19.3171 7.59208 19.7755 7.33707C20.2339 7.08208 20.6971 7.04187 21.0785 7.21324L21.222 6.89398L21.3654 6.57472C20.7364 6.29212 20.0379 6.39008 19.4352 6.72535C18.8325 7.06059 18.3031 7.64206 17.971 8.38128L18.2903 8.52471Z" fill="white" mask="url(#path-2-outside-1_997_1894)"/>
</g>
<defs>
<clipPath id="clip0_997_1894">
<rect width="24" height="24" fill="white"/>
</clipPath>
</defs>
</svg>
