<svg width="48" height="30" viewBox="0 0 48 30" fill="none" xmlns="http://www.w3.org/2000/svg">
<path d="M17.418 23.1787L17.418 27.7572" stroke="#B3B3B3" stroke-width="3.07244" stroke-linecap="round"/>
<path d="M24.1431 23.1787L24.1431 27.7572" stroke="#B3B3B3" stroke-width="3.07244" stroke-linecap="round"/>
<path d="M31.0107 23.1787L31.0107 27.7572" stroke="#B3B3B3" stroke-width="3.07244" stroke-linecap="round"/>
<path d="M24.2862 0C25.9457 0 27.2911 1.34545 27.2911 3.00488C27.2911 3.47275 27.1802 3.9138 26.9894 4.30859C33.173 9.52288 39.9398 14.0047 47.1573 17.6592C47.9141 18.0425 48.2172 18.9668 47.8341 19.7236C47.4508 20.4802 46.5264 20.7833 45.7696 20.4004C38.1523 16.5435 31.0204 11.7932 24.5255 6.25098L24.4366 6.1748C17.7127 11.9296 10.2223 16.7272 2.17785 20.4258C1.4073 20.7796 0.495216 20.4422 0.140741 19.6719C-0.213548 18.9012 0.124134 17.9883 0.894647 17.6338C8.37748 14.1934 15.3651 9.77064 21.6749 4.4873C21.4259 4.04964 21.2814 3.54443 21.2814 3.00488C21.2814 1.34548 22.6269 4.033e-05 24.2862 0Z" fill="#B3B3B3"/>
</svg>
